<svg id="Layer_1" data-name="Layer 1" xmlns="http://www.w3.org/2000/svg" viewBox="0 0 363 336"><g id="_fefefeff" data-name="#fefefeff"><path d="M0,0H363V336h-9.21c4.52-2.75,8.28-7.4,7.84-13-.28-29.85.34-59.75-.31-89.58-3.46-6.59-12.37-8.6-19.26-9.8-20.61-.46-41.26.2-61.87-.22-3.72.28-5.95-3-5.62-6.43.05-50.69-.08-101.39.08-152.08,1-12.71-15-22.71-26.06-16.49C239.86,53,237,63.49,229.26,69.18c-19.43,15.49-37.58,32.47-57.73,47-4.1,1.47-6.06-3.87-5.92-7.11-.3-28.24.35-56.51-.26-84.75-1.52-8.18-1.85-22-13.26-21.66-44-.14-88.08-.3-132.1.08C9.63,2.36,2.37,12.21,2.55,22Q2.43,59,2.57,96.07c.05,11.33,10.8,19.21,21.49,19.22,35.22.63,70.49-.15,105.71.35,5.66-.08,3.72,6.48,3.37,10-20,.6-40.43-1.8-60.21,1.26-7.64,5.47-13.29,13.82-23.27,15.8-12.73,7.26-7.57,24.93-7.59,37,2,13,19,10.46,24.78,20.37,6.77,12.67,26.43-1.51,33.17,11.77,3.8,13.37-8.59,23.58-20,27.29-11,4.48-23.28,1.87-34.8,2.23-7.13-3.22-8.7-13.15-16.28-16.27-12.62-6.36-26.85,7.17-26.57,19.87.16,23.35-.13,46.72.13,70.06,2.31,9.59,8.71,22.39,20.53,20.78,10.39,0,14-11.2,20.23-17.32,4.58-2,9.94-.81,14.82-1.08,12.67-1.35,19,14.41,32.08,12.22,15.53-1.72,33.06,4.08,47.12-4.29,14-13.8,9.62-35.32,15.78-52.46,2.26-15.47-6.56-29.6-15.12-41.65-1.89-7.18-4.05-17.55,2-23.15,13.47-5,28.85,1.55,37.54,12.42,7.39,9.38,23,13.09,23.87,26.67.23,24.65,0,49.32.06,74,0,6.29,5,10.72,9,14.9H0V0M313.43,142c.14,21.36-.07,42.72.14,64.07,1.11,1.18,2.23,2.35,3.34,3.54l3-.61c2.59-2.57,3.06-6.23,5.46-9,.16-22.37,0-44.74.08-67.11-.43-3.45-3.28-7-6.87-9.87-4.49,5.09-5.28,12.26-5.17,19m-23.77-1.49c-4.81,15-.93,32-2.09,47.82,2.23.93,2.29,3.74,3.43,5.62,3.65-2.19,7.94-2.9,10.58-6.85q-.31-20.58,0-41.18C298.64,142.12,294.61,139.66,289.66,140.5Z" fill="#fefefe"/><path d="M17.54,17.79c42.61-2.91,85.87-.49,128.73-1.21l4.07,2.6c-.63,30.12,2,60.58-1.4,90.48-1.3.63-3.06.5-4,1.7-8.65-14.5-26.91-8.83-40.93-9.92-28.51-1-57.37,2.16-85.64-1.79-3.33-27-2-54.71-.82-81.86M49.45,31.53c-3.38,2.7-8.4,2.77-12.47,4.31-.43.56-1.28,1.7-1.71,2.27q1,2.82,2.06,5.64c1.88.49,3.77,1,5.65,1.42l-3.07,2c25.77.58,51.57.31,77.35.14,3.38-2.35,7.28-3.94,10.42-6.6-.14-1-.29-1.92-.43-2.88q-4.35-3.12-8.59-6.37c-23.07,0-46.14,0-69.21,0m-14,38.09c0,2,0,4,0,6,25.7,2.31,51.69.35,77.51,1,4.24-.39,9,1,12.56-1.94q0-4.65,0-9.28C100.87,61,74.36,64.7,49,63.48,43.26,62,39.74,66.76,35.49,69.62Z" fill="#fefefe"/><path d="M250.24,65.06q3.87-2.48,7.69-5c1.95,1.2,3.17,3.17,4.63,4.88-.23,52.2,0,104.41-.1,156.61-1.75,1.21-3.54,2.37-5.76,1.92-1.4-.93-2.84-1.78-4.31-2.59.16-46.63,0-93.26.1-139.88C252.57,75.6,251.41,70.3,250.24,65.06Z" fill="#fefefe"/><path d="M229.27,83.45c3.18-.59,5.41,1.26,8.26,2.1.06,44.69-.14,89.39.1,134.08q-3.42,0-6.84.05c.29-5-4.84-8-7.78-11.41-4.17,0-7.62-2.68-12.27-1.8-2.23,1.26-4.15,3.36-6.89,3.29a31,31,0,0,0-3.79,10.49l-4.35.39c-.15-.65-.43-1.95-.57-2.6a18.06,18.06,0,0,1-7.64-8.44l-3.56-.32c-4.45-5.68-10.76-9.83-14.28-16.2,1.35-19.83-3.65-41.46,3.94-59.86,1.8-2.58,3.68-5.07,7-5.63l1.16-3,2.54-.12c1.89-2.13,4.41-3.78,5.66-6.39C203.65,107.44,218.06,96.24,229.27,83.45Z" fill="#fefefe"/><path d="M84.54,140.5c22.72-.14,45.43,0,68.14-.1,2.39,1.21,2.06,5.38,4.89,5-1.36,16.31,3,33.54-2.83,49.17-24-.1-48,.08-72-.1a3.07,3.07,0,0,0-2.43-2.05c-1.79-15.72-.66-31.65-.66-47.45C81.29,143.49,82.92,142,84.54,140.5Z" fill="#fefefe"/><path d="M58.31,151c2.46,2.67,4.88,5.36,7.23,8.12-.16,4.83-.15,9.67-.09,14.5-1.67,2-3.58,3.92-4.29,6.54A18.24,18.24,0,0,0,57.79,182C53,172.85,52.1,159.59,58.31,151Z" fill="#fefefe"/><path d="M116.91,207.76l1.94-.5c6,5,3.4,13.8,1.66,20.31-1.7,0-3.4,0-5.1,0A27.57,27.57,0,0,1,112.55,212Q114.74,209.91,116.91,207.76Z" fill="#fefefe"/><path d="M217.67,226.49c3.62,3.93,8.4,6.53,12.55,9.86,38.14,4.89,77,.39,115.47,2.45,4.19,26.92,1,55.14,1.68,82.55q-65.82.6-131.66,0c.86-31.53-2.86-63.76,2-94.84m26.16,36.06-3.09,2.65q-.11,3.39-.16,6.78l3,3.56c27.07.06,54.14-.1,81.21.1a12.21,12.21,0,0,0,5-11.06,2.41,2.41,0,0,1-2.5-2.05c-27.81-.12-55.63-.18-83.45,0m.87,30.11q-2.47,2.63-5,5.22c-.12.5-.37,1.49-.49,2a20.46,20.46,0,0,0,8.69,6.64c22.71-.07,45.43.1,68.14-.05a15.61,15.61,0,0,0,13.58-6.77c-.34-2.9-3.2-4.56-4.71-6.89A666.89,666.89,0,0,0,244.7,292.66Z" fill="#fefefe"/><path d="M17.8,241.61q3.54,0,7.07.1c.82,1,1.63,2,2.45,3.08a531.26,531.26,0,0,1,0,72.48c.15,5.64-6.17,3.55-9.65,3.09A536.26,536.26,0,0,1,17.8,241.61Z" fill="#fefefe"/><path d="M97.07,243.83c11.21-2.1,22.83-1.81,34.1-.23,3,5.81,3.55,12.86,9.28,17.13.43,8.23.44,16.65-2.8,24.4-.3-.86-.9-2.57-1.19-3.43-2.9,11.76.27,25.11-10,33.83-14.34,0-28.68.08-43,0-3.78-4.65-9.62-6.86-14.37-10-8.33,0-16.66-.1-25,.07-5.18-15.72-2-33.7-1.79-50.24l2.18-1.88c11.2,0,22.41,0,33.61,0C84.39,250.74,92.05,249.33,97.07,243.83Z" fill="#fefefe"/></g><g id="_0b0b0bff" data-name="#0b0b0bff"><path d="M2.55,22C2.37,12.21,9.63,2.36,20,2.75c44-.38,88.08-.22,132.1-.08,11.41-.39,11.74,13.48,13.26,21.66.61,28.24,0,56.51.26,84.75-.14,3.24,1.82,8.58,5.92,7.11,20.15-14.54,38.3-31.52,57.73-47,7.78-5.69,10.6-16.2,19.33-20.76,11.07-6.22,27,3.78,26.06,16.49-.16,50.69,0,101.39-.08,152.08-.33,3.44,1.9,6.71,5.62,6.43,20.61.42,41.26-.24,61.87.22,6.89,1.2,15.8,3.21,19.26,9.8.65,29.83,0,59.73.31,89.58.44,5.58-3.32,10.23-7.84,13H210.43c-4-4.18-9-8.61-9-14.9-.1-24.64.17-49.31-.06-74-.87-13.58-16.48-17.29-23.87-26.67C168.84,209.6,153.46,203,140,208.05c-6.08,5.6-3.92,16-2,23.15,8.56,12.05,17.38,26.18,15.12,41.65-6.16,17.14-1.73,38.66-15.78,52.46-14.06,8.37-31.59,2.57-47.12,4.29-13,2.19-19.41-13.57-32.08-12.22-4.88.27-10.24-.93-14.82,1.08-6.27,6.12-9.84,17.36-20.23,17.32C11.23,337.39,4.83,324.59,2.52,315c-.26-23.34,0-46.71-.13-70.06-.28-12.7,14-26.23,26.57-19.87,7.58,3.12,9.15,13.05,16.28,16.27,11.52-.36,23.83,2.25,34.8-2.23,11.39-3.71,23.78-13.92,20-27.29-6.74-13.28-26.4.9-33.17-11.77-5.78-9.91-22.77-7.41-24.78-20.37,0-12-5.14-29.7,7.59-37,10-2,15.63-10.33,23.27-15.8,19.78-3.06,40.18-.66,60.21-1.26.35-3.54,2.29-10.1-3.37-10-35.22-.5-70.49.28-105.71-.35-10.69,0-21.44-7.89-21.49-19.22Q2.41,59,2.55,22m15-4.16c-1.17,27.15-2.51,54.86.82,81.86,28.27,3.95,57.13.75,85.64,1.79,14,1.09,32.28-4.58,40.93,9.92.95-1.2,2.71-1.07,4-1.7,3.41-29.9.77-60.36,1.4-90.48l-4.07-2.6c-42.86.72-86.12-1.7-128.73,1.21m232.7,47.27c1.17,5.24,2.33,10.54,2.25,15.94-.14,46.62.06,93.25-.1,139.88,1.47.81,2.91,1.66,4.31,2.59,2.22.45,4-.71,5.76-1.92.08-52.2-.13-104.41.1-156.61-1.46-1.71-2.68-3.68-4.63-4.88q-3.83,2.52-7.69,5m-21,18.39c-11.21,12.79-25.62,24-39.33,34.66-1.25,2.61-3.77,4.26-5.66,6.39l-2.54.12-1.16,3c-3.3.56-5.18,3-7,5.63-7.59,18.4-2.59,40-3.94,59.86,3.52,6.37,9.83,10.52,14.28,16.2l3.56.32a18.06,18.06,0,0,0,7.64,8.44c.14.65.42,2,.57,2.6l4.35-.39a31,31,0,0,1,3.79-10.49c2.74.07,4.66-2,6.89-3.29,4.65-.88,8.1,1.78,12.27,1.8,2.94,3.43,8.07,6.46,7.78,11.41q3.42-.06,6.84-.05c-.24-44.69,0-89.39-.1-134.08-2.85-.84-5.08-2.69-8.26-2.1M84.54,140.5c-1.62,1.49-3.25,3-4.9,4.47,0,15.8-1.13,31.73.66,47.45a3.07,3.07,0,0,1,2.43,2.05c24,.18,48,0,72,.1,5.78-15.63,1.47-32.86,2.83-49.17-2.83.38-2.5-3.79-4.89-5-22.71.14-45.42,0-68.14.1M58.31,151c-6.21,8.56-5.36,21.82-.52,31a18.24,18.24,0,0,1,3.37-1.81c.71-2.62,2.62-4.51,4.29-6.54-.06-4.83-.07-9.67.09-14.5-2.35-2.76-4.77-5.45-7.23-8.12m58.6,56.73q-2.18,2.15-4.36,4.26a27.57,27.57,0,0,0,2.86,15.53c1.7,0,3.4,0,5.1,0,1.74-6.51,4.36-15.31-1.66-20.31l-1.94.5m100.76,18.73c-4.82,31.08-1.1,63.31-2,94.84q65.8.68,131.66,0c-.66-27.41,2.51-55.63-1.68-82.55-38.43-2.06-77.33,2.44-115.47-2.45-4.15-3.33-8.93-5.93-12.55-9.86M17.8,241.61a536.26,536.26,0,0,0-.1,78.75c3.48.46,9.8,2.55,9.65-3.09a531.26,531.26,0,0,0,0-72.48c-.82-1-1.63-2.06-2.45-3.08q-3.53-.08-7.07-.1m79.27,2.22c-5,5.5-12.68,6.91-19,9.66-11.2-.05-22.41,0-33.61,0l-2.18,1.88c-.17,16.54-3.39,34.52,1.79,50.24,8.33-.17,16.66-.06,25-.07,4.75,3.11,10.59,5.32,14.37,10,14.34.11,28.68.07,43,0,10.26-8.72,7.09-22.07,10-33.83.29.86.89,2.57,1.19,3.43,3.24-7.75,3.23-16.17,2.8-24.4-5.73-4.27-6.25-11.32-9.28-17.13C119.9,242,108.28,241.73,97.07,243.83Z" fill="#0b0b0b"/><path d="M49.45,31.53c23.07,0,46.14,0,69.21,0q4.25,3.24,8.59,6.37c.14,1,.29,1.92.43,2.88-3.14,2.66-7,4.25-10.42,6.6-25.78.17-51.58.44-77.35-.14l3.07-2c-1.88-.46-3.77-.93-5.65-1.42q-1-2.82-2.06-5.64c.43-.57,1.28-1.71,1.71-2.27C41.05,34.3,46.07,34.23,49.45,31.53Z" fill="#0b0b0b"/><path d="M35.49,69.62C39.74,66.76,43.26,62,49,63.48c25.39,1.22,51.9-2.5,76.59,1.88q0,4.64,0,9.28c-3.55,3-8.32,1.55-12.56,1.94-25.82-.65-51.81,1.31-77.51-1C35.5,73.59,35.49,71.61,35.49,69.62Z" fill="#0b0b0b"/><path d="M313.43,142c-.11-6.7.68-13.87,5.17-19,3.59,2.87,6.44,6.42,6.87,9.87-.06,22.37.08,44.74-.08,67.11-2.4,2.75-2.87,6.41-5.46,9l-3,.61c-1.11-1.19-2.23-2.36-3.34-3.54C313.36,184.71,313.57,163.35,313.43,142Z" fill="#0b0b0b"/><path d="M289.66,140.5c4.95-.84,9,1.62,11.91,5.41q-.29,20.6,0,41.18c-2.64,3.95-6.93,4.66-10.58,6.85-1.14-1.88-1.2-4.69-3.43-5.62C288.73,172.5,284.85,155.54,289.66,140.5Z" fill="#0b0b0b"/><path d="M243.83,262.55c27.82-.2,55.64-.14,83.45,0a2.41,2.41,0,0,0,2.5,2.05,12.21,12.21,0,0,1-5,11.06c-27.07-.2-54.14,0-81.21-.1l-3-3.56q.06-3.39.16-6.78Z" fill="#0b0b0b"/><path d="M244.7,292.66a666.89,666.89,0,0,1,80.23.13c1.51,2.33,4.37,4,4.71,6.89a15.61,15.61,0,0,1-13.58,6.77c-22.71.15-45.43,0-68.14.05a20.46,20.46,0,0,1-8.69-6.64c.12-.49.37-1.48.49-2Q242.22,295.28,244.7,292.66Z" fill="#0b0b0b"/></g></svg>