<svg id="services_icon-_new_ads" data-name="services icon- new ads" xmlns="http://www.w3.org/2000/svg" width="125.473" height="136.172" viewBox="0 0 125.473 136.172">
  <path id="Path_824" data-name="Path 824" d="M240.188,33.933h-1.38a38.512,38.512,0,0,0-3.4-8.215l.981-.981a5.972,5.972,0,0,0,0-8.429l-6.537-6.529a5.958,5.958,0,0,0-8.433-.006l-.98.98a38.376,38.376,0,0,0-8.216-3.411V5.962A5.968,5.968,0,0,0,206.256,0h-9.242a5.968,5.968,0,0,0-5.962,5.962v1.38a38.486,38.486,0,0,0-8.222,3.412l-.976-.976a5.959,5.959,0,0,0-8.433-.005l-6.536,6.536a5.972,5.972,0,0,0,0,8.428l.981.981a38.321,38.321,0,0,0-3.407,8.215h-1.385a5.968,5.968,0,0,0-5.962,5.962v9.25a5.968,5.968,0,0,0,5.962,5.962h1.385a38.332,38.332,0,0,0,3.407,8.215l-.981.981a5.972,5.972,0,0,0,0,8.428l6.531,6.531a5.905,5.905,0,0,0,4.219,1.751h0a5.9,5.9,0,0,0,4.214-1.746l.981-.981a38.3,38.3,0,0,0,8.222,3.408v1.385a5.968,5.968,0,0,0,5.962,5.962h9.242a5.968,5.968,0,0,0,5.962-5.962V81.693a38.176,38.176,0,0,0,8.216-3.407l.974.974a5.958,5.958,0,0,0,8.432.007l6.545-6.537a5.972,5.972,0,0,0,0-8.428l-.981-.981a38.526,38.526,0,0,0,3.4-8.215h1.38a5.968,5.968,0,0,0,5.962-5.962v-9.25a5.968,5.968,0,0,0-5.961-5.962ZM206.9,83.078a.651.651,0,0,1-.643.643h-9.242a.651.651,0,0,1-.643-.643V62.858a2.66,2.66,0,0,0-1.735-2.494A18.216,18.216,0,0,1,190.7,28.174c.225-.154.424-.279.6-.382-.01.346-.034.674-.047.846-.02.27-.036.483-.036.694V41.885a11,11,0,0,0,10.248,10.954,2.682,2.682,0,0,0,.352,0,11,11,0,0,0,10.241-10.954V29.332c0-.21-.016-.422-.035-.69-.013-.172-.037-.5-.047-.85.173.1.371.228.6.381a18.219,18.219,0,0,1-3.933,32.192,2.66,2.66,0,0,0-1.734,2.493v20.22Zm33.932-33.933a.659.659,0,0,1-.643.643h-3.445a2.659,2.659,0,0,0-2.594,2.072,33.264,33.264,0,0,1-4.336,10.459,2.66,2.66,0,0,0,.368,3.3l2.443,2.443a.653.653,0,0,1,0,.9l-6.55,6.543a.639.639,0,0,1-.9-.006l-2.443-2.443a2.66,2.66,0,0,0-3.3-.366,33,33,0,0,1-7.21,3.424V64.627a23.532,23.532,0,0,0,3.35-40.846c-.99-.677-4-2.736-6.637-1.22-2.587,1.489-2.329,4.981-2.219,6.471.01.13.019.238.021.3V41.885a5.127,5.127,0,1,1-10.2,0V29.352c0-.08.012-.189.022-.319.111-1.49.371-4.979-2.214-6.47-2.633-1.519-5.65.541-6.642,1.219a23.53,23.53,0,0,0,3.357,40.847V76.12a33.172,33.172,0,0,1-7.22-3.425,2.66,2.66,0,0,0-3.3.368l-2.448,2.448a.639.639,0,0,1-.9-.005l-6.536-6.536a.653.653,0,0,1,0-.906l2.443-2.443a2.66,2.66,0,0,0,.368-3.3,33.092,33.092,0,0,1-4.335-10.455,2.659,2.659,0,0,0-2.595-2.077h-3.453a.659.659,0,0,1-.643-.643v-9.25a.651.651,0,0,1,.643-.643h3.453a2.66,2.66,0,0,0,2.595-2.077,33.083,33.083,0,0,1,4.335-10.455,2.66,2.66,0,0,0-.368-3.3l-2.443-2.443a.653.653,0,0,1,0-.906l6.542-6.542a.64.64,0,0,1,.9.006l2.443,2.443a2.66,2.66,0,0,0,3.3.368A33.244,33.244,0,0,1,194.3,12a2.66,2.66,0,0,0,2.074-2.594V5.962a.651.651,0,0,1,.643-.643h9.242a.651.651,0,0,1,.643.643V9.407A2.659,2.659,0,0,0,208.972,12a33.111,33.111,0,0,1,10.456,4.342,2.66,2.66,0,0,0,3.3-.366l2.448-2.448a.64.64,0,0,1,.9.007l6.543,6.535a.653.653,0,0,1,0,.906l-2.443,2.443a2.66,2.66,0,0,0-.368,3.3A33.268,33.268,0,0,1,234.15,37.18a2.659,2.659,0,0,0,2.594,2.072h3.445a.651.651,0,0,1,.643.643v9.25Z" transform="translate(-120.677 0)" fill="#4d4d4d"/>
  <path id="Path_825" data-name="Path 825" d="M380.636,438.167a2.66,2.66,0,1,0,3.761,3.761l.007-.007a2.66,2.66,0,0,0-3.769-3.754Z" transform="translate(-284.182 -321.061)" fill="#4d4d4d"/>
  <path id="Path_826" data-name="Path 826" d="M128.891,335.231l-21.114,10.843a9.806,9.806,0,0,0-7.072-3.01H86.237A4,4,0,0,1,85.216,343a7.8,7.8,0,0,1-.786-.69l-.132-.124c-11.7-11.018-21.591-10.32-32.834-5.882a7.652,7.652,0,0,1-3.681.8l-3.271,0a7.073,7.073,0,0,0-6.7-4.846H27.171a7.067,7.067,0,0,0-7.055,7.062v27.917a7.063,7.063,0,0,0,7.055,7.055H37.808a7.073,7.073,0,0,0,6.7-4.84H50.5a2.83,2.83,0,0,1,1.143.173c.223.063.5.14.846.234l27.525,7.364c1.213.328,2.326.65,3.4.962,3.527,1.022,6.491,1.881,9.581,1.881,3.492,0,7.143-1.1,11.946-4.3l.069-.048,5.255-3.747a2.659,2.659,0,0,0-3.088-4.331l-5.22,3.722c-6.969,4.635-9.928,3.778-17.062,1.711-1.1-.318-2.235-.648-3.5-.99l-27.527-7.364c-.322-.087-.575-.158-.783-.216a7.407,7.407,0,0,0-2.586-.372H44.87V342.42h2.874l.114,0,.152-.006a12.466,12.466,0,0,0,5.407-1.164c9.875-3.9,17.5-4.36,27.239,4.811l.132.124a6.439,6.439,0,0,0,5.45,2.2H100.7a4.52,4.52,0,0,1,3.95,2.331c.008.015.018.03.026.045a4.51,4.51,0,0,1-3.976,6.651H77.259a2.66,2.66,0,1,0,0,5.319H100.7a9.823,9.823,0,0,0,9.6-11.974l21.018-10.794c1.989-1.021,4.71-.912,6.06,1.28a4.479,4.479,0,0,1-1.528,5.971l-9.22,6.566a2.66,2.66,0,1,0,3.085,4.333l9.221-6.567a9.735,9.735,0,0,0,2.967-13.1c-2.642-4.288-8.237-5.671-13.016-3.218Zm-89.34,32a1.762,1.762,0,0,1-1.743,1.736H27.171a1.759,1.759,0,0,1-1.736-1.736V339.316a1.742,1.742,0,0,1,1.736-1.743H37.808a1.766,1.766,0,0,1,1.743,1.743Z" transform="translate(-20.116 -243.889)" fill="#4d4d4d"/>
</svg>
