<svg id="propeerty_icon-_new_ads" data-name="propeerty icon- new ads" xmlns="http://www.w3.org/2000/svg" xmlns:xlink="http://www.w3.org/1999/xlink" width="125.473" height="123.381" viewBox="0 0 125.473 123.381">
  <defs>
    <linearGradient id="linear-gradient" x1="0.5" x2="0.5" y2="1" gradientUnits="objectBoundingBox">
      <stop offset="0" stop-color="#dc3c30"/>
      <stop offset="1" stop-color="#6e1e18"/>
    </linearGradient>
  </defs>
  <path id="Path_827" data-name="Path 827" d="M133.108,143.2V42.821h4.182a2.091,2.091,0,0,0,2.091-2.091V26.091a2.091,2.091,0,0,0-2.274-2.083l-71.1,6.274A2.091,2.091,0,0,0,64.1,32.365V40.73a2.091,2.091,0,0,0,2.091,2.091h4.182V76.28h4.182V42.821h54.371V143.2h-13.7a7.809,7.809,0,0,0,1.157-4.122,7.547,7.547,0,0,0-2.709-5.72c-1.022-1.029-1.473-1.533-1.473-2.705,0-5.2-2.873-10.456-8.365-10.456s-8.365,5.26-8.365,10.456c0,1.172-.451,1.677-1.473,2.706a7.546,7.546,0,0,0-2.71,5.72A7.812,7.812,0,0,0,92.44,143.2H70.371V116.013a2.091,2.091,0,0,0-2.091-2.091H55.733a2.091,2.091,0,0,0-2.091,2.091V143.2H47.368V106.272L72.463,95.293l25.095,10.979V118.1h4.182v-10l3.344,1.464a2.091,2.091,0,0,0,2.93-1.917V97.193a2.091,2.091,0,0,0-1.253-1.916L73.3,80.638a2.091,2.091,0,0,0-1.677,0L38.165,95.277a2.091,2.091,0,0,0-1.253,1.916v10.456a2.091,2.091,0,0,0,2.93,1.916l3.344-1.464v35.1H28.547V107.649H32.73v-4.182H20.182V57.46H66.189V53.277H52.417l-7.752-7.752a2.091,2.091,0,0,0-1.479-.612H26.456A2.091,2.091,0,0,0,24.365,47v6.274H18.091A2.091,2.091,0,0,0,16,55.368v50.189a2.091,2.091,0,0,0,2.091,2.091h6.274V143.2H16v4.182H141.473V143.2ZM68.28,34.28l66.919-5.9V38.639H68.28ZM41.095,104.451V98.56L72.463,84.837,103.831,98.56v5.891l-2.091-.915v-.07h-.16L73.3,91.094a2.091,2.091,0,0,0-1.677,0L43.346,103.466h-.16v.07ZM28.547,49.095H42.32L46.5,53.277H28.547ZM57.824,118.1h8.365V143.2H57.824ZM99.648,143.2c-1.152,0-4.182-1.268-4.182-4.122,0-1.216.458-1.729,1.5-2.773a7.473,7.473,0,0,0,2.687-5.652c0-4.962,2.736-6.274,4.182-6.274,3.308,0,4.182,4.1,4.182,6.274A7.473,7.473,0,0,0,110.7,136.3c1.037,1.046,1.5,1.557,1.5,2.773,0,2.854-3.031,4.122-4.182,4.122Z" transform="translate(-16 -24)" fill="url(#linear-gradient)"/>
  <path id="Path_828" data-name="Path 828" d="M242.091,384A2.091,2.091,0,0,0,240,386.091v10.456a2.091,2.091,0,0,0,2.091,2.091h12.547a2.091,2.091,0,0,0,2.091-2.091V386.091A2.091,2.091,0,0,0,254.638,384Zm10.456,10.456h-8.365v-6.274h8.365Z" transform="translate(-181.446 -289.896)" fill="url(#linear-gradient)"/>
  <rect id="Rectangle_1500" data-name="Rectangle 1500" width="4.156" height="4.156" transform="translate(43.84 81.462)" fill="url(#linear-gradient)"/>
  <path id="Path_829" data-name="Path 829" d="M71,193.095V172.182H89.824V168H50.091A2.091,2.091,0,0,0,48,170.091v33.459a2.091,2.091,0,0,0,2.091,2.091h6.274v-4.182H52.182V172.182H66.821v20.912Z" transform="translate(-39.635 -130.358)" fill="url(#linear-gradient)"/>
  <path id="Path_830" data-name="Path 830" d="M266.091,136.73h12.547a2.091,2.091,0,0,0,2.091-2.091V122.091A2.091,2.091,0,0,0,278.638,120H266.091A2.091,2.091,0,0,0,264,122.091v12.547A2.091,2.091,0,0,0,266.091,136.73Zm2.091-12.547h8.365v8.365h-8.365Z" transform="translate(-199.172 -94.906)" fill="url(#linear-gradient)"/>
  <path id="Path_831" data-name="Path 831" d="M362.091,136.73h12.547a2.091,2.091,0,0,0,2.091-2.091V122.091A2.091,2.091,0,0,0,374.638,120H362.091A2.091,2.091,0,0,0,360,122.091v12.547A2.091,2.091,0,0,0,362.091,136.73Zm2.091-12.547h8.365v8.365h-8.365Z" transform="translate(-270.078 -94.906)" fill="url(#linear-gradient)"/>
  <path id="Path_832" data-name="Path 832" d="M264,216.365h4.182v-4.182h8.365v10.456h4.182V210.091A2.091,2.091,0,0,0,278.638,208H266.091A2.091,2.091,0,0,0,264,210.091Z" transform="translate(-199.172 -159.902)" fill="url(#linear-gradient)"/>
  <path id="Path_833" data-name="Path 833" d="M360,222.638a2.091,2.091,0,0,0,2.091,2.091h12.547a2.091,2.091,0,0,0,2.091-2.091V210.091A2.091,2.091,0,0,0,374.638,208H362.091A2.091,2.091,0,0,0,360,210.091Zm4.182-10.456h8.365v8.365h-8.365Z" transform="translate(-270.078 -159.902)" fill="url(#linear-gradient)"/>
  <path id="Path_834" data-name="Path 834" d="M384,308.547v4.182h8.365a2.091,2.091,0,0,0,2.091-2.091V298.091A2.091,2.091,0,0,0,392.365,296H384v4.182h6.274v8.365Z" transform="translate(-287.804 -224.899)" fill="url(#linear-gradient)"/>
  <rect id="Rectangle_1501" data-name="Rectangle 1501" width="4.156" height="4.156" transform="translate(16.409 89.774)" fill="url(#linear-gradient)"/>
</svg>
