<svg xmlns="http://www.w3.org/2000/svg" width="117" height="117" viewBox="0 0 117 117">
  <g id="login_-_Company_icon" data-name="login - Company icon" transform="translate(-9525 18162)">
    <g id="Ellipse_82" data-name="Ellipse 82" transform="translate(9525 -18162)" fill="none" stroke="#000" stroke-width="5">
      <circle cx="58.5" cy="58.5" r="58.5" stroke="none"/>
      <circle cx="58.5" cy="58.5" r="56" fill="none"/>
    </g>
    <g id="Group_4781" data-name="Group 4781" transform="translate(9535.86 -18139.797)">
      <g id="Group_4683" data-name="Group 4683" transform="translate(0 0)">
        <path id="Path_17546" data-name="Path 17546" d="M1626.7,118.549c.773-.282,1.193-.414,1.6-.585,3.161-1.34,2.144-1.629,4.726,1.016,1.644,1.684,3.186,3.471,4.882,5.1a4.3,4.3,0,0,1,1.366,3.669c-.141,4.261.112,8.534.15,12.8.039,4.339.043,8.679-.012,13.018-.016,1.262.139,2.086,1.7,1.9,1.435-.168,1.334.78,1.14,1.919-.555.032-1.1.09-1.642.091-10.594.007-21.189-.026-31.783.048-1.589.011-1.831-.585-1.825-1.967.048-10.82.031-21.64.027-32.46,0-.707-.062-1.414-.1-2.313-.675.243-1.145.377-1.586.576-4.263,1.919-8.513,3.866-12.787,5.761a1.932,1.932,0,0,0-1.335,2.152c.1,8.959.046,17.919.077,26.879,0,1.038-.375,1.394-1.388,1.348-1.406-.065-2.823.043-4.222-.073-.367-.03-.689-.611-1.032-.939.33-.343.7-1.015.984-.978,2.086.281,2.208-.857,2.194-2.5-.066-8.056.035-16.113-.07-24.169-.032-2.448.639-3.986,3.1-4.863,2.75-.98,5.338-2.4,8.032-3.552a1.859,1.859,0,0,0,1.345-2.03,32.639,32.639,0,0,1,.038-4.728,2.543,2.543,0,0,1,1.092-1.784c5.244-2.609,10.55-5.093,15.814-7.664a1.3,1.3,0,0,1,1.853.439c2.3,2.776,4.676,5.492,6.95,8.29a3.866,3.866,0,0,1,.692,1.972C1626.779,116.033,1626.7,117.158,1626.7,118.549Zm-23.716-.1a14.561,14.561,0,0,0,2.15-.888c1.286-.822,2.174-.525,3.162.6,1.966,2.245,4.136,4.312,6.111,6.55a4.036,4.036,0,0,1,.948,2.357c.1,3.379.044,6.762.044,10.145,0,5.524.028,11.048-.02,16.571-.01,1.2.278,1.71,1.6,1.7,1.412-.009,1.333-.82,1.333-1.767q-.012-22.575-.011-45.149c0-.478-.078-.956-.123-1.466a2.29,2.29,0,0,0-.627.06c-4.576,2.183-9.156,4.358-13.7,6.6a1.86,1.86,0,0,0-.822,1.274A29.817,29.817,0,0,0,1602.981,118.451Zm27.948,2.225a15.9,15.9,0,0,1-2,.858c-1.84.476-2.3,1.6-2.278,3.468q.158,14.275,0,28.553c-.019,1.849.8,1.929,2.227,1.939,1.449.01,2.225-.128,2.209-1.953-.091-10.306-.043-20.613-.048-30.919C1631.04,122.08,1630.98,121.539,1630.929,120.676Z" transform="translate(-1565.552 -84.805)"/>
        <path id="Path_17547" data-name="Path 17547" d="M1621.224,170.3c0,1.669.038,3-.028,4.322a1.168,1.168,0,0,1-.6.872c-2.823.924-5.667,1.785-8.517,2.668-.685-3.117-.565-3.39,1.989-4.576C1616.346,172.526,1618.63,171.487,1621.224,170.3Z" transform="translate(-1583.475 -128.672)"/>
        <path id="Path_17548" data-name="Path 17548" d="M1611.938,250.113h9.408a19.508,19.508,0,0,1-.06,3.166c-.059.351-.8.817-1.251.835-2.186.087-4.379-.011-6.565.062-1.157.038-1.66-.326-1.545-1.523C1612,251.883,1611.938,251.1,1611.938,250.113Z" transform="translate(-1583.596 -181.493)"/>
        <path id="Path_17549" data-name="Path 17549" d="M1621.144,197.54v4.483l-9.006,1.5c-.705-2.987-.579-3.227,2.054-3.993C1616.444,198.873,1618.7,198.237,1621.144,197.54Z" transform="translate(-1583.505 -146.701)"/>
        <path id="Path_17550" data-name="Path 17550" d="M1620.847,224.448c.229.306.287.347.292.395.411,3.76.411,3.764-3.288,3.99-1.567.1-3.136.168-4.7.258-.72.041-1.495.027-1.321-.968.166-.953-.845-2.471.923-2.744C1615.453,224.959,1618.188,224.743,1620.847,224.448Z" transform="translate(-1583.45 -164.508)"/>
        <path id="Path_17551" data-name="Path 17551" d="M1545.124,117.157l1.314-2.312,11.862,6.832-1.279,2.355Z" transform="translate(-1539.4 -91.975)"/>
        <path id="Path_17552" data-name="Path 17552" d="M1757.072,124.033l-1.344-2.293,11.856-6.869,1.375,2.3Z" transform="translate(-1678.774 -91.992)"/>
        <path id="Path_17553" data-name="Path 17553" d="M1604.769,76.21l-2.3,1.372-6.882-11.912,2.312-1.348Z" transform="translate(-1572.797 -58.539)"/>
        <path id="Path_17554" data-name="Path 17554" d="M1719.507,77.672l-2.308-1.346,6.839-11.86,2.353,1.275Z" transform="translate(-1653.276 -58.635)"/>
        <path id="Path_17555" data-name="Path 17555" d="M1668.546,60.924h-2.525c0-2.7,0-5.326,0-7.955,0-1.239-.012-2.478.006-3.718.03-2.16.083-2.2,2.519-1.881Z" transform="translate(-1619.405 -47.226)"/>
        <path id="Path_17556" data-name="Path 17556" d="M1528.384,187.813c-.411-2.367-.267-2.507,1.833-2.482,3.206.039,6.412.021,9.618.017,2.11,0,2.25.178,1.738,2.465Z" transform="translate(-1528.2 -138.62)"/>
        <path id="Path_17557" data-name="Path 17557" d="M1771.45,187.872v-2.6c3.595,0,7.158,0,10.721,0,.5,0,1.009,0,1.512-.025.913-.044,1.5.182,1.487,1.29-.01,1.014-.381,1.366-1.4,1.356C1779.7,187.847,1775.62,187.872,1771.45,187.872Z" transform="translate(-1689.178 -138.561)"/>
      </g>
    </g>
  </g>
</svg>
